{
    "asset" : {
        "generator" : "Khronos glTF Blender I/O v1.8.19",
        "version" : "2.0"
    },
    "extensionsUsed" : [
        "KHR_materials_transmission",
        "KHR_materials_ior",
        "KHR_materials_volume"
    ],
    "scene" : 0,
    "scenes" : [
        {
            "name" : "Scene",
            "nodes" : [
                0,
                1,
                2,
                3,
                4,
                5,
                6
            ]
        }
    ],
    "nodes" : [
        {
            "mesh" : 0,
            "name" : "Torus.002"
        },
        {
            "mesh" : 1,
            "name" : "Curve.001",
            "rotation" : [
                0.7071068286895752,
                0,
                0,
                0.7071068286895752
            ],
            "scale" : [
                0.04393327981233597,
                0.04393327981233597,
                0.04393327981233597
            ],
            "translation" : [
                -0.01635354571044445,
                0.20231005549430847,
                -0.00043016154086217284
            ]
        },
        {
            "mesh" : 2,
            "name" : "Torus.001"
        },
        {
            "mesh" : 3,
            "name" : "Torus.003",
            "scale" : [
                5.663739204406738,
                1,
                1
            ],
            "translation" : [
                -0.21784049272537231,
                0.1327560395002365,
                0.00041034648893401027
            ]
        },
        {
            "mesh" : 4,
            "name" : "Sphere.001"
        },
        {
            "mesh" : 5,
            "name" : "Curve.010",
            "rotation" : [
                0.7071068286895752,
                0,
                0,
                0.7071068286895752
            ],
            "scale" : [
                0.04393327981233597,
                0.04393327981233597,
                0.04393327981233597
            ],
            "translation" : [
                -0.01635354571044445,
                0.20231005549430847,
                -0.00043016154086217284
            ]
        },
        {
            "mesh" : 6,
            "name" : "Curve.011",
            "rotation" : [
                0.7071068286895752,
                0,
                0,
                -0.7071068286895752
            ],
            "scale" : [
                0.04393327981233597,
                0.04393327981233597,
                0.04393327981233597
            ],
            "translation" : [
                -0.01635354571044445,
                -0.15425381064414978,
                -0.00043016154086217284
            ]
        }
    ],
    "materials" : [
        {
            "alphaMode" : "BLEND",
            "extensions" : {
                "KHR_materials_transmission" : {
                    "transmissionFactor" : 1
                },
                "KHR_materials_ior" : {
                    "ior" : 1.899999976158142
                },
                "KHR_materials_volume" : {
                    "thicknessFactor" : 0.05000000074505806,
                    "attenuationColor" : [
                        0.7683443427085876,
                        0.7074216604232788,
                        0.6117073893547058
                    ],
                    "attenuationDistance" : 1000.1
                }
            },
            "name" : "Material.006",
            "pbrMetallicRoughness" : {
                "baseColorFactor" : [
                    0.800000011920929,
                    0.800000011920929,
                    0.800000011920929,
                    1
                ],
                "metallicFactor" : 0,
                "roughnessFactor" : 0.10000000149011612
            }
        },
        {
            "name" : "Material.003",
            "pbrMetallicRoughness" : {
                "baseColorFactor" : [
                    0.8148625493049622,
                    0.4378010630607605,
                    0,
                    1
                ],
                "roughnessFactor" : 0.000311829149723053
            }
        },
        {
            "alphaMode" : "BLEND",
            "extensions" : {
                "KHR_materials_transmission" : {
                    "transmissionFactor" : 1
                },
                "KHR_materials_ior" : {
                    "ior" : 1.899999976158142
                },
                "KHR_materials_volume" : {
                    "thicknessFactor" : 0.05000000074505806,
                    "attenuationColor" : [
                        0.7683443427085876,
                        0.7074216604232788,
                        0.6117073893547058
                    ],
                    "attenuationDistance" : 1000.1
                }
            },
            "name" : "Material.011",
            "pbrMetallicRoughness" : {
                "baseColorFactor" : [
                    0.800000011920929,
                    0.800000011920929,
                    0.800000011920929,
                    1
                ],
                "metallicFactor" : 0,
                "roughnessFactor" : 0.10000000149011612
            }
        },
        {
            "name" : "Material.017",
            "pbrMetallicRoughness" : {
                "baseColorFactor" : [
                    0.8148625493049622,
                    0.4378010630607605,
                    0,
                    1
                ],
                "roughnessFactor" : 0.000311829149723053
            }
        },
        {
            "doubleSided" : true,
            "name" : "Material.028",
            "pbrMetallicRoughness" : {
                "baseColorFactor" : [
                    0.8148464560508728,
                    0.3515324294567108,
                    0.0012142211198806763,
                    1
                ],
                "roughnessFactor" : 0.11417321860790253
            }
        }
    ],
    "meshes" : [
        {
            "name" : "Torus.002",
            "primitives" : [
                {
                    "attributes" : {
                        "POSITION" : 0,
                        "NORMAL" : 1,
                        "TEXCOORD_0" : 2
                    },
                    "indices" : 3,
                    "material" : 0
                }
            ]
        },
        {
            "name" : "Curve.001",
            "primitives" : [
                {
                    "attributes" : {
                        "POSITION" : 4,
                        "NORMAL" : 5,
                        "TEXCOORD_0" : 6
                    },
                    "indices" : 7,
                    "material" : 1
                }
            ]
        },
        {
            "name" : "Torus.003",
            "primitives" : [
                {
                    "attributes" : {
                        "POSITION" : 8,
                        "NORMAL" : 9,
                        "TEXCOORD_0" : 10
                    },
                    "indices" : 11,
                    "material" : 0
                }
            ]
        },
        {
            "name" : "Torus.004",
            "primitives" : [
                {
                    "attributes" : {
                        "POSITION" : 12,
                        "NORMAL" : 13,
                        "TEXCOORD_0" : 14
                    },
                    "indices" : 11,
                    "material" : 2
                }
            ]
        },
        {
            "name" : "Sphere.006",
            "primitives" : [
                {
                    "attributes" : {
                        "POSITION" : 15,
                        "NORMAL" : 16,
                        "TEXCOORD_0" : 17
                    },
                    "indices" : 18,
                    "material" : 3
                }
            ]
        },
        {
            "name" : "Curve.133",
            "primitives" : [
                {
                    "attributes" : {
                        "POSITION" : 19,
                        "NORMAL" : 20,
                        "TEXCOORD_0" : 21
                    },
                    "indices" : 7,
                    "material" : 3
                }
            ]
        },
        {
            "name" : "Curve.390",
            "primitives" : [
                {
                    "attributes" : {
                        "POSITION" : 22,
                        "NORMAL" : 23,
                        "TEXCOORD_0" : 24
                    },
                    "indices" : 7,
                    "material" : 4
                }
            ]
        }
    ],
    "accessors" : [
        {
            "bufferView" : 0,
            "componentType" : 5126,
            "count" : 3840,
            "max" : [
                0.187552809715271,
                0.18576768040657043,
                0.05342201888561249
            ],
            "min" : [
                -0.21760280430316925,
                -0.13546667993068695,
                -0.05260134115815163
            ],
            "type" : "VEC3"
        },
        {
            "bufferView" : 1,
            "componentType" : 5126,
            "count" : 3840,
            "type" : "VEC3"
        },
        {
            "bufferView" : 2,
            "componentType" : 5126,
            "count" : 3840,
            "type" : "VEC2"
        },
        {
            "bufferView" : 3,
            "componentType" : 5123,
            "count" : 9216,
            "type" : "SCALAR"
        },
        {
            "bufferView" : 4,
            "componentType" : 5126,
            "count" : 4762,
            "max" : [
                4.625392436981201,
                0.004999999888241291,
                0.1409233957529068
            ],
            "min" : [
                -4.622287273406982,
                -0.004999999888241291,
                -0.0418257862329483
            ],
            "type" : "VEC3"
        },
        {
            "bufferView" : 5,
            "componentType" : 5126,
            "count" : 4762,
            "type" : "VEC3"
        },
        {
            "bufferView" : 6,
            "componentType" : 5126,
            "count" : 4762,
            "type" : "VEC2"
        },
        {
            "bufferView" : 7,
            "componentType" : 5123,
            "count" : 9252,
            "type" : "SCALAR"
        },
        {
            "bufferView" : 8,
            "componentType" : 5126,
            "count" : 480,
            "max" : [
                -0.11209049820899963,
                0.17020173370838165,
                0.03785603865981102
            ],
            "min" : [
                -0.1139601469039917,
                0.09531033039093018,
                -0.03703535720705986
            ],
            "type" : "VEC3"
        },
        {
            "bufferView" : 9,
            "componentType" : 5126,
            "count" : 480,
            "type" : "VEC3"
        },
        {
            "bufferView" : 10,
            "componentType" : 5126,
            "count" : 480,
            "type" : "VEC2"
        },
        {
            "bufferView" : 11,
            "componentType" : 5123,
            "count" : 1152,
            "type" : "SCALAR"
        },
        {
            "bufferView" : 12,
            "componentType" : 5126,
            "count" : 480,
            "max" : [
                0.0009348839521408081,
                0.03744569420814514,
                0.03744569048285484
            ],
            "min" : [
                -0.0009347647428512573,
                -0.037445709109306335,
                -0.03744570538401604
            ],
            "type" : "VEC3"
        },
        {
            "bufferView" : 13,
            "componentType" : 5126,
            "count" : 480,
            "type" : "VEC3"
        },
        {
            "bufferView" : 14,
            "componentType" : 5126,
            "count" : 480,
            "type" : "VEC2"
        },
        {
            "bufferView" : 15,
            "componentType" : 5126,
            "count" : 12470,
            "max" : [
                0.17673496901988983,
                0.18395490944385529,
                0.04952171817421913
            ],
            "min" : [
                -0.22677594423294067,
                -0.13398054242134094,
                -0.049521662294864655
            ],
            "type" : "VEC3"
        },
        {
            "bufferView" : 16,
            "componentType" : 5126,
            "count" : 12470,
            "type" : "VEC3"
        },
        {
            "bufferView" : 17,
            "componentType" : 5126,
            "count" : 12470,
            "type" : "VEC2"
        },
        {
            "bufferView" : 18,
            "componentType" : 5123,
            "count" : 28104,
            "type" : "SCALAR"
        },
        {
            "bufferView" : 19,
            "componentType" : 5126,
            "count" : 4762,
            "max" : [
                4.625392436981201,
                0.004999999888241291,
                0.1409233957529068
            ],
            "min" : [
                -4.622287273406982,
                -0.004999999888241291,
                -0.0418257862329483
            ],
            "type" : "VEC3"
        },
        {
            "bufferView" : 20,
            "componentType" : 5126,
            "count" : 4762,
            "type" : "VEC3"
        },
        {
            "bufferView" : 21,
            "componentType" : 5126,
            "count" : 4762,
            "type" : "VEC2"
        },
        {
            "bufferView" : 22,
            "componentType" : 5126,
            "count" : 4762,
            "max" : [
                4.625392436981201,
                0.004999999888241291,
                0.1409233957529068
            ],
            "min" : [
                -4.622287273406982,
                -0.004999999888241291,
                -0.0418257862329483
            ],
            "type" : "VEC3"
        },
        {
            "bufferView" : 23,
            "componentType" : 5126,
            "count" : 4762,
            "type" : "VEC3"
        },
        {
            "bufferView" : 24,
            "componentType" : 5126,
            "count" : 4762,
            "type" : "VEC2"
        }
    ],
    "bufferViews" : [
        {
            "buffer" : 0,
            "byteLength" : 46080,
            "byteOffset" : 0
        },
        {
            "buffer" : 0,
            "byteLength" : 46080,
            "byteOffset" : 46080
        },
        {
            "buffer" : 0,
            "byteLength" : 30720,
            "byteOffset" : 92160
        },
        {
            "buffer" : 0,
            "byteLength" : 18432,
            "byteOffset" : 122880
        },
        {
            "buffer" : 0,
            "byteLength" : 57144,
            "byteOffset" : 141312
        },
        {
            "buffer" : 0,
            "byteLength" : 57144,
            "byteOffset" : 198456
        },
        {
            "buffer" : 0,
            "byteLength" : 38096,
            "byteOffset" : 255600
        },
        {
            "buffer" : 0,
            "byteLength" : 18504,
            "byteOffset" : 293696
        },
        {
            "buffer" : 0,
            "byteLength" : 5760,
            "byteOffset" : 312200
        },
        {
            "buffer" : 0,
            "byteLength" : 5760,
            "byteOffset" : 317960
        },
        {
            "buffer" : 0,
            "byteLength" : 3840,
            "byteOffset" : 323720
        },
        {
            "buffer" : 0,
            "byteLength" : 2304,
            "byteOffset" : 327560
        },
        {
            "buffer" : 0,
            "byteLength" : 5760,
            "byteOffset" : 329864
        },
        {
            "buffer" : 0,
            "byteLength" : 5760,
            "byteOffset" : 335624
        },
        {
            "buffer" : 0,
            "byteLength" : 3840,
            "byteOffset" : 341384
        },
        {
            "buffer" : 0,
            "byteLength" : 149640,
            "byteOffset" : 345224
        },
        {
            "buffer" : 0,
            "byteLength" : 149640,
            "byteOffset" : 494864
        },
        {
            "buffer" : 0,
            "byteLength" : 99760,
            "byteOffset" : 644504
        },
        {
            "buffer" : 0,
            "byteLength" : 56208,
            "byteOffset" : 744264
        },
        {
            "buffer" : 0,
            "byteLength" : 57144,
            "byteOffset" : 800472
        },
        {
            "buffer" : 0,
            "byteLength" : 57144,
            "byteOffset" : 857616
        },
        {
            "buffer" : 0,
            "byteLength" : 38096,
            "byteOffset" : 914760
        },
        {
            "buffer" : 0,
            "byteLength" : 57144,
            "byteOffset" : 952856
        },
        {
            "buffer" : 0,
            "byteLength" : 57144,
            "byteOffset" : 1010000
        },
        {
            "buffer" : 0,
            "byteLength" : 38096,
            "byteOffset" : 1067144
        }
    ],
    "buffers" : [
        {
            "byteLength" : 1105240,
            "uri" : "machine.bin"
        }
    ]
}
