{
    "asset" : {
        "generator" : "Khronos glTF Blender I/O v1.8.19",
        "version" : "2.0"
    },
    "scene" : 0,
    "scenes" : [
        {
            "name" : "Scene",
            "nodes" : [
                0
            ]
        }
    ],
    "nodes" : [
        {
            "mesh" : 0,
            "name" : "Cylinder.004"
        }
    ],
    "materials" : [
        {
            "doubleSided" : true,
            "name" : "Material.017",
            "pbrMetallicRoughness" : {
                "baseColorFactor" : [
                    0.8148464560508728,
                    0.3515324294567108,
                    0.0012142211198806763,
                    1
                ],
                "roughnessFactor" : 0.11417321860790253
            }
        }
    ],
    "meshes" : [
        {
            "name" : "Cylinder.005",
            "primitives" : [
                {
                    "attributes" : {
                        "POSITION" : 0,
                        "NORMAL" : 1,
                        "TEXCOORD_0" : 2
                    },
                    "indices" : 3,
                    "material" : 0
                }
            ]
        }
    ],
    "accessors" : [
        {
            "bufferView" : 0,
            "componentType" : 5126,
            "count" : 1920,
            "max" : [
                0.16733011603355408,
                0.04673103988170624,
                0.0005222144536674023
            ],
            "min" : [
                -0.17148271203041077,
                -0.046731069684028625,
                -0.0005222143372520804
            ],
            "type" : "VEC3"
        },
        {
            "bufferView" : 1,
            "componentType" : 5126,
            "count" : 1920,
            "type" : "VEC3"
        },
        {
            "bufferView" : 2,
            "componentType" : 5126,
            "count" : 1920,
            "type" : "VEC2"
        },
        {
            "bufferView" : 3,
            "componentType" : 5123,
            "count" : 3720,
            "type" : "SCALAR"
        }
    ],
    "bufferViews" : [
        {
            "buffer" : 0,
            "byteLength" : 23040,
            "byteOffset" : 0
        },
        {
            "buffer" : 0,
            "byteLength" : 23040,
            "byteOffset" : 23040
        },
        {
            "buffer" : 0,
            "byteLength" : 15360,
            "byteOffset" : 46080
        },
        {
            "buffer" : 0,
            "byteLength" : 7440,
            "byteOffset" : 61440
        }
    ],
    "buffers" : [
        {
            "byteLength" : 68880,
            "uri" : "indicator2_1.bin"
        }
    ]
}
