{
    "asset" : {
        "generator" : "Khronos glTF Blender I/O v1.8.19",
        "version" : "2.0"
    },
    "extensionsUsed" : [
        "KHR_materials_transmission",
        "KHR_materials_ior",
        "KHR_materials_volume"
    ],
    "scene" : 0,
    "scenes" : [
        {
            "name" : "Scene",
            "nodes" : [
                0,
                1,
                2,
                3
            ]
        }
    ],
    "nodes" : [
        {
            "mesh" : 0,
            "name" : "Torus.002"
        },
        {
            "mesh" : 1,
            "name" : "Sphere.001"
        },
        {
            "mesh" : 2,
            "name" : "Curve.010",
            "rotation" : [
                0.7071068286895752,
                0,
                0,
                0.7071068286895752
            ],
            "scale" : [
                0.04393327981233597,
                0.04393327981233597,
                0.04393327981233597
            ],
            "translation" : [
                -0.01635354571044445,
                0.20231005549430847,
                -0.00043016154086217284
            ]
        },
        {
            "mesh" : 3,
            "name" : "Curve.011",
            "rotation" : [
                0.7071068286895752,
                0,
                0,
                -0.7071068286895752
            ],
            "scale" : [
                0.04393327981233597,
                0.04393327981233597,
                0.04393327981233597
            ],
            "translation" : [
                -0.01635354571044445,
                -0.15425381064414978,
                -0.00043016154086217284
            ]
        }
    ],
    "materials" : [
        {
            "alphaMode" : "BLEND",
            "extensions" : {
                "KHR_materials_transmission" : {
                    "transmissionFactor" : 1
                },
                "KHR_materials_ior" : {
                    "ior" : 1.899999976158142
                },
                "KHR_materials_volume" : {
                    "thicknessFactor" : 0.05000000074505806,
                    "attenuationColor" : [
                        0.7683443427085876,
                        0.7074216604232788,
                        0.6117073893547058
                    ],
                    "attenuationDistance" : 1000.1
                }
            },
            "name" : "Material.006",
            "pbrMetallicRoughness" : {
                "baseColorFactor" : [
                    0.800000011920929,
                    0.800000011920929,
                    0.800000011920929,
                    1
                ],
                "metallicFactor" : 0,
                "roughnessFactor" : 0.30000001192092896
            }
        },
        {
            "name" : "Material.017",
            "pbrMetallicRoughness" : {
                "baseColorFactor" : [
                    0.8148625493049622,
                    0.4378010630607605,
                    0,
                    1
                ],
                "roughnessFactor" : 0.000311829149723053
            }
        },
        {
            "doubleSided" : true,
            "name" : "Material.028",
            "pbrMetallicRoughness" : {
                "baseColorFactor" : [
                    0.8148464560508728,
                    0.3515324294567108,
                    0.0012142211198806763,
                    1
                ],
                "roughnessFactor" : 0.11417321860790253
            }
        }
    ],
    "meshes" : [
        {
            "name" : "Torus.002",
            "primitives" : [
                {
                    "attributes" : {
                        "POSITION" : 0,
                        "NORMAL" : 1,
                        "TEXCOORD_0" : 2
                    },
                    "indices" : 3,
                    "material" : 0
                }
            ]
        },
        {
            "name" : "Sphere.006",
            "primitives" : [
                {
                    "attributes" : {
                        "POSITION" : 4,
                        "NORMAL" : 5,
                        "TEXCOORD_0" : 6
                    },
                    "indices" : 7,
                    "material" : 1
                }
            ]
        },
        {
            "name" : "Curve.133",
            "primitives" : [
                {
                    "attributes" : {
                        "POSITION" : 8,
                        "NORMAL" : 9,
                        "TEXCOORD_0" : 10
                    },
                    "indices" : 11,
                    "material" : 1
                }
            ]
        },
        {
            "name" : "Curve.390",
            "primitives" : [
                {
                    "attributes" : {
                        "POSITION" : 12,
                        "NORMAL" : 13,
                        "TEXCOORD_0" : 14
                    },
                    "indices" : 11,
                    "material" : 2
                }
            ]
        }
    ],
    "accessors" : [
        {
            "bufferView" : 0,
            "componentType" : 5126,
            "count" : 5823,
            "max" : [
                0.187552809715271,
                0.18576768040657043,
                0.05342201888561249
            ],
            "min" : [
                -0.2184608429670334,
                -0.13546667993068695,
                -0.05260134115815163
            ],
            "type" : "VEC3"
        },
        {
            "bufferView" : 1,
            "componentType" : 5126,
            "count" : 5823,
            "type" : "VEC3"
        },
        {
            "bufferView" : 2,
            "componentType" : 5126,
            "count" : 5823,
            "type" : "VEC2"
        },
        {
            "bufferView" : 3,
            "componentType" : 5123,
            "count" : 15312,
            "type" : "SCALAR"
        },
        {
            "bufferView" : 4,
            "componentType" : 5126,
            "count" : 13680,
            "max" : [
                0.17673496901988983,
                0.18538053333759308,
                0.04952171817421913
            ],
            "min" : [
                -0.22677594423294067,
                -0.13398054242134094,
                -0.049521662294864655
            ],
            "type" : "VEC3"
        },
        {
            "bufferView" : 5,
            "componentType" : 5126,
            "count" : 13680,
            "type" : "VEC3"
        },
        {
            "bufferView" : 6,
            "componentType" : 5126,
            "count" : 13680,
            "type" : "VEC2"
        },
        {
            "bufferView" : 7,
            "componentType" : 5123,
            "count" : 31896,
            "type" : "SCALAR"
        },
        {
            "bufferView" : 8,
            "componentType" : 5126,
            "count" : 4762,
            "max" : [
                4.625392436981201,
                0.004999999888241291,
                0.1409233957529068
            ],
            "min" : [
                -4.622287273406982,
                -0.004999999888241291,
                -0.0418257862329483
            ],
            "type" : "VEC3"
        },
        {
            "bufferView" : 9,
            "componentType" : 5126,
            "count" : 4762,
            "type" : "VEC3"
        },
        {
            "bufferView" : 10,
            "componentType" : 5126,
            "count" : 4762,
            "type" : "VEC2"
        },
        {
            "bufferView" : 11,
            "componentType" : 5123,
            "count" : 9252,
            "type" : "SCALAR"
        },
        {
            "bufferView" : 12,
            "componentType" : 5126,
            "count" : 4762,
            "max" : [
                4.625392436981201,
                0.004999999888241291,
                0.1409233957529068
            ],
            "min" : [
                -4.622287273406982,
                -0.004999999888241291,
                -0.0418257862329483
            ],
            "type" : "VEC3"
        },
        {
            "bufferView" : 13,
            "componentType" : 5126,
            "count" : 4762,
            "type" : "VEC3"
        },
        {
            "bufferView" : 14,
            "componentType" : 5126,
            "count" : 4762,
            "type" : "VEC2"
        }
    ],
    "bufferViews" : [
        {
            "buffer" : 0,
            "byteLength" : 69876,
            "byteOffset" : 0
        },
        {
            "buffer" : 0,
            "byteLength" : 69876,
            "byteOffset" : 69876
        },
        {
            "buffer" : 0,
            "byteLength" : 46584,
            "byteOffset" : 139752
        },
        {
            "buffer" : 0,
            "byteLength" : 30624,
            "byteOffset" : 186336
        },
        {
            "buffer" : 0,
            "byteLength" : 164160,
            "byteOffset" : 216960
        },
        {
            "buffer" : 0,
            "byteLength" : 164160,
            "byteOffset" : 381120
        },
        {
            "buffer" : 0,
            "byteLength" : 109440,
            "byteOffset" : 545280
        },
        {
            "buffer" : 0,
            "byteLength" : 63792,
            "byteOffset" : 654720
        },
        {
            "buffer" : 0,
            "byteLength" : 57144,
            "byteOffset" : 718512
        },
        {
            "buffer" : 0,
            "byteLength" : 57144,
            "byteOffset" : 775656
        },
        {
            "buffer" : 0,
            "byteLength" : 38096,
            "byteOffset" : 832800
        },
        {
            "buffer" : 0,
            "byteLength" : 18504,
            "byteOffset" : 870896
        },
        {
            "buffer" : 0,
            "byteLength" : 57144,
            "byteOffset" : 889400
        },
        {
            "buffer" : 0,
            "byteLength" : 57144,
            "byteOffset" : 946544
        },
        {
            "buffer" : 0,
            "byteLength" : 38096,
            "byteOffset" : 1003688
        }
    ],
    "buffers" : [
        {
            "byteLength" : 1041784,
            "uri" : "machine.bin"
        }
    ]
}
